<svg width="25" height="22" viewBox="0 0 25 22" fill="none" xmlns="http://www.w3.org/2000/svg">
<g clip-path="url(#clip0)">
<path d="M0.145184 16.5179C0.216918 16.4106 0.332151 16.4031 0.499277 16.4966C4.19589 18.4339 8.22599 19.4006 12.5743 19.4006C15.4757 19.4006 18.3413 18.9138 21.1718 17.9396L21.49 17.8104C21.6335 17.7533 21.7288 17.7176 21.7884 17.6921C22.0188 17.6096 22.186 17.6488 22.3248 17.8104C22.4477 17.9678 22.4164 18.1184 22.202 18.2511C21.9433 18.4229 21.59 18.6271 21.1802 18.8492C19.9126 19.5298 18.4932 20.0558 16.9196 20.4318C15.4214 20.7971 13.8768 20.985 12.3248 20.9908C10.0193 20.9908 7.83755 20.6291 5.77862 19.9024C3.74772 19.1859 1.87628 18.1464 0.253549 16.8334C0.150526 16.7654 0.0986328 16.6939 0.0986328 16.6293C0.0986328 16.5859 0.118474 16.5468 0.150526 16.511L0.145184 16.5179ZM6.82259 10.8171C6.82259 9.89657 7.0729 9.10939 7.57809 8.45764C8.08328 7.80589 8.77086 7.31157 9.65686 6.97539C10.4635 6.66739 11.4418 6.44876 12.6178 6.31676C13.2686 6.25236 13.9207 6.19873 14.5737 6.15589V5.81901C14.5737 4.96307 14.4661 4.39039 14.2677 4.10026C13.9579 3.70289 13.4725 3.50214 12.801 3.50214H12.6178C12.1286 3.54545 11.7036 3.68089 11.3502 3.92495C10.9923 4.17176 10.7619 4.50176 10.6627 4.93145C10.5993 5.2037 10.452 5.3577 10.2178 5.39689L7.6544 5.10676C7.40409 5.05314 7.27665 4.94176 7.27665 4.75201C7.27665 4.7087 7.28428 4.66951 7.30031 4.61245C7.55062 3.43064 8.17104 2.54995 9.15243 1.97314C10.1422 1.40732 11.2869 1.07801 12.5987 1.00995H13.1512C14.8286 1.00995 16.1603 1.40732 17.1058 2.19176C17.2447 2.33132 17.3798 2.46745 17.5194 2.63245C17.6385 2.78301 17.7461 2.92257 17.8056 3.04426C17.8811 3.16939 17.9605 3.34882 18.004 3.56676C18.0635 3.79982 18.1116 3.95382 18.1429 4.03564C18.1704 4.13257 18.2062 4.31132 18.2184 4.59801C18.2306 4.8847 18.2383 5.05245 18.2383 5.10676V9.94814C18.2383 10.2919 18.3016 10.6068 18.4054 10.8969C18.513 11.1836 18.6198 11.3912 18.7274 11.5129L19.2479 12.1323C19.3395 12.2574 19.383 12.3654 19.383 12.4616C19.383 12.5723 19.3235 12.6693 19.1998 12.7483C17.9796 13.7115 17.308 14.234 17.2042 14.3165C17.0371 14.4416 16.8227 14.4561 16.564 14.3598C16.3656 14.2058 16.1824 14.0553 16.0275 13.9054L15.7138 13.5864C15.6004 13.4607 15.4918 13.3316 15.388 13.1993L15.0858 12.8019C14.2593 13.6146 13.4519 14.1233 12.6415 14.3275C12.1409 14.4671 11.5288 14.5351 10.781 14.5351C9.65228 14.5351 8.706 14.2237 7.9711 13.5898C7.24002 12.9559 6.87372 12.0608 6.87372 10.8934L6.82183 10.8254L6.82259 10.8171ZM10.6421 10.4163C10.6421 10.9354 10.7855 11.3506 11.0755 11.6662C11.3655 11.9776 11.7631 12.1351 12.2477 12.1351C12.2958 12.1351 12.3591 12.1316 12.4461 12.1172C12.5024 12.1064 12.5596 12.0993 12.617 12.0959C13.2413 11.9488 13.7144 11.5913 14.0639 11.0179C14.2349 10.7601 14.3539 10.4844 14.4333 10.1833C14.5249 9.8897 14.5523 9.64289 14.5684 9.44901C14.5844 9.27026 14.5844 8.9547 14.5844 8.52845V8.03414C13.7297 8.03414 13.0742 8.08776 12.6285 8.19914C11.3327 8.52845 10.6772 9.26957 10.6772 10.4266L10.6413 10.4088L10.6421 10.4163ZM19.9622 16.8582C19.9942 16.8046 20.0416 16.7578 20.0973 16.7042C20.4228 16.4987 20.7842 16.3438 21.1664 16.2456C21.7041 16.1228 22.2539 16.0484 22.8079 16.0236C22.9514 16.0126 23.0903 16.0236 23.2253 16.0524C23.8855 16.1061 24.2907 16.2064 24.4181 16.3536C24.4815 16.4361 24.5097 16.5646 24.5097 16.7118V16.8513C24.5097 17.3168 24.3662 17.8681 24.0846 18.4986C23.8023 19.1324 23.4093 19.6446 22.9125 20.0386C22.8369 20.0956 22.769 20.1211 22.7095 20.1211C22.6774 20.1211 22.6499 20.1211 22.6179 20.1101C22.5263 20.0709 22.5103 20.0028 22.5546 19.8914C23.1032 18.7351 23.3734 17.9259 23.3734 17.4708C23.3734 17.3346 23.3413 17.2239 23.2856 17.1559C23.1383 17.0053 22.7255 16.9194 22.0379 16.9194C21.7914 16.9194 21.4976 16.9338 21.1557 16.9627C20.7864 17.006 20.4399 17.0452 20.1385 17.0878C20.0469 17.0878 19.9874 17.0734 19.9553 17.0445C19.9233 17.0198 19.9156 17.0012 19.9317 16.9764C19.9317 16.9586 19.9393 16.9476 19.9553 16.9153V16.8616L19.9622 16.8582Z" fill="black"/>
</g>
<defs>
<clipPath id="clip0">
<rect width="24.4202" height="22" fill="white" transform="translate(0.097168)"/>
</clipPath>
</defs>
</svg>
