<svg width="30" height="20" viewBox="0 0 30 20" fill="none" xmlns="http://www.w3.org/2000/svg">
<path d="M29.1667 18.5071C29.1667 19.2862 28.5348 19.9166 27.7571 19.9166H16.4096C16.0357 19.9166 15.6772 19.7681 15.4129 19.5038C15.1485 19.2394 15 18.8809 15 18.5071C15 18.1332 15.1485 17.7747 15.4129 17.5103C15.6772 17.246 16.0357 17.0975 16.4096 17.0975H27.7571C28.5362 17.0975 29.1667 17.7279 29.1667 18.5071Z" fill="black"/>
<path d="M29.1666 9.99998C29.1666 10.7791 28.5348 11.4096 27.7571 11.4096H2.2429C1.86905 11.4096 1.51052 11.261 1.24617 10.9967C0.981822 10.7324 0.833313 10.3738 0.833313 9.99998C0.833313 9.62613 0.981822 9.2676 1.24617 9.00325C1.51052 8.7389 1.86905 8.59039 2.2429 8.59039H27.7571C28.5362 8.59039 29.1666 9.22223 29.1666 9.99998Z" fill="black"/>
<path d="M27.7571 2.90248C28.1309 2.90248 28.4894 2.75397 28.7538 2.48962C29.0181 2.22527 29.1666 1.86674 29.1666 1.4929C29.1666 1.11905 29.0181 0.760518 28.7538 0.49617C28.4894 0.231822 28.1309 0.083313 27.7571 0.083313H10.7429C10.5578 0.083313 10.3745 0.119773 10.2035 0.190611C10.0325 0.261449 9.87706 0.365278 9.74617 0.49617C9.61528 0.627062 9.51145 0.782454 9.44061 0.953473C9.36977 1.12449 9.33331 1.30779 9.33331 1.4929C9.33331 1.67801 9.36977 1.8613 9.44061 2.03232C9.51145 2.20334 9.61528 2.35873 9.74617 2.48962C9.87706 2.62051 10.0325 2.72434 10.2035 2.79518C10.3745 2.86602 10.5578 2.90248 10.7429 2.90248H27.7571Z" fill="black"/>
</svg>
