<svg width="49" height="56" viewBox="0 0 49 56" fill="none" xmlns="http://www.w3.org/2000/svg">
<path d="M13.8732 14.0629C10.0324 16.3941 6.826 19.6673 4.54644 23.5839C2.26687 27.5006 0.986721 31.936 0.822754 36.4857C0.826993 40.0434 1.78545 43.5324 3.59467 46.5761C5.4039 49.6198 7.99518 52.1025 11.0888 53.7564C14.1836 55.409 17.6628 56.1696 21.151 55.9562C24.6392 55.7428 28.0039 54.5634 30.882 52.5454C33.76 50.5265 36.0411 47.7448 37.4786 44.5012C38.916 41.2575 39.4551 37.6755 39.0374 34.1424C38.6233 30.6095 37.2683 27.2591 35.1189 24.4538C32.9696 21.6484 30.1077 19.4949 26.8429 18.2262C24.6834 17.3352 22.3717 16.8897 20.0418 16.9154C15.89 19.7636 12.5587 23.687 10.391 28.2817C11.7516 26.628 13.5003 25.3508 15.4749 24.5685C17.4495 23.7863 19.5861 23.5243 21.6867 23.8069C23.7894 24.0871 25.7883 24.9043 27.4976 26.1823C29.2069 27.4603 30.5709 29.1578 31.4629 31.1167C32.3551 33.0747 32.7483 35.23 32.6062 37.3836C32.4641 39.5372 31.7913 41.6196 30.6499 43.4384C29.5034 45.2541 27.9265 46.7468 26.0645 47.779C24.2026 48.8111 22.1154 49.3496 19.9954 49.3447C18.1701 49.3464 16.3661 48.9448 14.7079 48.1677C13.0498 47.3907 11.5769 46.2566 10.391 44.8437C8.85687 43.1011 7.73229 41.0259 7.10248 38.7753C6.47266 36.5247 6.35414 34.1576 6.75588 31.8534C9.21713 16.8787 26.8429 8.2477 39.8951 4.90345C33.8536 7.86166 28.0367 11.2737 22.4928 15.1112C38.2657 21.3079 40.7992 7.79095 48.176 1.73945C40.8352 -1.18655 13.9093 -2.2628 13.8715 14.0717L13.8732 14.0629Z" fill="#A9C13E"/>
</svg>
