<svg width="32" height="28" viewBox="0 0 32 28" fill="none" xmlns="http://www.w3.org/2000/svg">
<g clip-path="url(#clip0)">
<path d="M6.98145 0.00439551L13.1324 15.7089V15.7001L13.6181 16.9348C16.324 23.8298 17.776 27.5258 17.7809 27.5301L18.6919 27.58C20.1896 27.6351 22.0457 27.79 23.452 27.9396C23.7755 27.9764 24.0542 27.9851 24.0746 27.9764L17.4128 10.955L14.2717 2.9619C13.9026 2.00767 13.5284 1.05507 13.1489 0.104146L13.1081 -0.000854492H6.98727L6.98145 0.00439551ZM17.9984 0.0140205L17.9829 6.2029L17.9732 12.3961L17.4069 10.9559L16.6785 24.7328C17.3972 26.5606 17.7809 27.5354 17.7867 27.5398C17.7925 27.5441 18.2014 27.5713 18.6919 27.5896C20.1944 27.6491 22.0457 27.7996 23.4569 27.9545C23.7803 27.986 24.0639 28 24.0795 27.986C24.0999 27.9773 24.1047 21.665 24.1047 13.9773L24.095 0.0140205H17.9984ZM6.98145 0.00439551V13.9904C6.98145 21.6834 6.99116 27.986 7.00184 27.9948C7.01253 28.0035 7.53798 27.958 8.17512 27.8941C8.82453 27.8209 9.47538 27.7585 10.1274 27.7069C10.8004 27.6474 12.808 27.5293 13.0411 27.5293C13.1072 27.5293 13.112 27.2151 13.1217 21.6046L13.1315 15.6756L13.6219 16.9155L13.7939 17.353L14.532 3.58577L14.2843 2.9479L13.1052 0.00352051L6.98145 0.00439551Z" fill="black"/>
</g>
<defs>
<clipPath id="clip0">
<rect width="31.0803" height="28" fill="white"/>
</clipPath>
</defs>
</svg>
